<?xml version="1.0" encoding="UTF-8" standalone="no"?>
<!-- Generator: Adobe Illustrator 20.1.0, SVG Export Plug-In . SVG Version: 6.00 Build 0)  -->

<svg
   version="1.1"
   id="Layer_1"
   x="0px"
   y="0px"
   viewBox="0 0 400 225"
   style="enable-background:new 0 0 400 225;"
   xml:space="preserve"
   sodipodi:docname="icon.svg"
   inkscape:version="1.2 (dc2aedaf03, 2022-05-15)"
   xmlns:inkscape="http://www.inkscape.org/namespaces/inkscape"
   xmlns:sodipodi="http://sodipodi.sourceforge.net/DTD/sodipodi-0.dtd"
   xmlns="http://www.w3.org/2000/svg"
   xmlns:svg="http://www.w3.org/2000/svg"
   xmlns:rdf="http://www.w3.org/1999/02/22-rdf-syntax-ns#"
   xmlns:cc="http://creativecommons.org/ns#"
   xmlns:dc="http://purl.org/dc/elements/1.1/"><defs
   id="defs324" /><sodipodi:namedview
   id="namedview322"
   pagecolor="#ffffff"
   bordercolor="#666666"
   borderopacity="1.0"
   inkscape:showpageshadow="2"
   inkscape:pageopacity="0.0"
   inkscape:pagecheckerboard="0"
   inkscape:deskcolor="#d1d1d1"
   showgrid="false"
   inkscape:zoom="2.3988598"
   inkscape:cx="206.97333"
   inkscape:cy="86.290997"
   inkscape:window-width="1920"
   inkscape:window-height="1011"
   inkscape:window-x="0"
   inkscape:window-y="0"
   inkscape:window-maximized="1"
   inkscape:current-layer="g4585" />
<style
   type="text/css"
   id="style254">
	.st0{fill:none;}
	.st1{fill:#345EA5;}
	.st2{fill:#DBDBDE;}
	.st3{fill:#FFFFFF;}
	.st4{opacity:0.15;}
	.st5{fill:#9AB7DE;}
	.st6{fill:#3D6083;}
	.st7{opacity:0.1;}
	.st8{fill:#030403;}
	.st9{fill:#B7B7BE;}
	.st10{fill:#46B08D;}
	.st11{fill:#295849;}
</style>
<title
   id="title256">Interactive Book</title>
<g
   id="Layer_2">
	<g
   id="g318">
		<rect
   y="0"
   class="st0"
   width="400"
   height="225"
   id="rect258" />
		
		
		
		
		
		
		
		
		
		
		
		
		
		
		
		
		
		
		
		
	<g
   id="g796"
   transform="matrix(3.4908641,0,0,3.4908641,-113.31752,-432.85826)"><g
     id="g4470"
     transform="matrix(0.48045312,-0.16477299,0.16477299,0.48045312,21.078059,122.13914)"><g
       id="g4052"
       transform="matrix(0.26458333,0,0,0.26458333,77.673753,66.178356)"><rect
         class="cls-1"
         x="106"
         y="49.5"
         width="195"
         height="109"
         id="rect4009"
         style="fill:#d4efff" /><rect
         class="cls-2"
         x="106"
         y="158.5"
         width="195"
         height="19"
         id="rect4011"
         style="fill:#34495e" /><polygon
         class="cls-3"
         points="119.52,167.11 112,171.45 112,162.77 "
         id="polygon4013"
         style="fill:#ecf0f1" /><rect
         class="cls-4"
         x="124"
         y="165.5"
         width="169"
         height="5"
         id="rect4015"
         style="fill:#2c3e50" /><rect
         class="cls-3"
         x="124"
         y="165.5"
         width="52"
         height="5"
         id="rect4017"
         style="fill:#ecf0f1" /><circle
         class="cls-5"
         cx="130.73"
         cy="73.57"
         r="17.1"
         id="circle4019"
         style="fill:#2a80bb" /><polygon
         class="cls-6"
         points="106,145.16 150.46,107.82 172.67,126.49 190.23,111.76 243.87,66.65 289.72,105.45 301,115.29 301,158.5 106,158.5 "
         id="polygon4021"
         style="fill:#3497da" /><circle
         class="cls-7"
         cx="207.53"
         cy="88.059998"
         r="18.799999"
         id="circle4023"
         style="fill:#8e44ad" /><g
         class="cls-8"
         id="g4027"
         style="opacity:0.5"><path
           class="cls-7"
           d="m 207.53,65.78 a 22.29,22.29 0 1 1 -22.29,22.29 22.31,22.31 0 0 1 22.29,-22.29 m 0,-4 a 26.28,26.28 0 1 0 26.28,26.28 26.28,26.28 0 0 0 -26.28,-26.28 z"
           id="path4025"
           style="fill:#8e44ad" /></g><g
         class="cls-9"
         id="g4031"
         style="opacity:0.25"><path
           class="cls-7"
           d="m 207.53,58.92 a 29.14,29.14 0 1 1 -29.14,29.14 29.18,29.18 0 0 1 29.14,-29.14 m 0,-4 a 33.13,33.13 0 1 0 33.13,33.13 33.13,33.13 0 0 0 -33.13,-33.13 z"
           id="path4029"
           style="fill:#8e44ad" /></g><path
         class="cls-10"
         d="m 207.53,97.52 a 18.81,18.81 0 0 1 -18.21,-14.13 18.8,18.8 0 1 0 36.43,0 18.81,18.81 0 0 1 -18.22,14.13 z"
         id="path4033"
         style="opacity:0.5;fill:#662f84" /><g
         class="cls-11"
         id="g4037"
         style="opacity:0.2"><path
           d="m 243,113 v 5.54 L 212,84.28 c 0,0 -4.76,41.31 -6.46,76.13 L 222.4,177.5 H 301 v -7.59 z"
           id="path4035" /></g><g
         id="_Group_"
         data-name="&lt;Group&gt;"><path
           class="cls-3"
           d="m 250.67,119.18 c 0,7.69 0,15.39 0,23.08 a 32.63,32.63 0 0 1 -4.44,16.74 23.22,23.22 0 0 1 -7.15,7.71 17.16,17.16 0 0 1 -9.64,3 c -2.76,0 -5.53,0.08 -8.28,-0.07 a 17.35,17.35 0 0 1 -10.53,-4.53 26.55,26.55 0 0 1 -7.48,-11.11 4.44,4.44 0 0 0 -0.75,-1.3 c -1.94,-2.29 -3.86,-4.61 -5.89,-6.83 a 31.85,31.85 0 0 0 -9.92,-7.15 5.65,5.65 0 0 1 -3.38,-4.59 c -0.29,-2.38 0.89,-4 2.87,-5.15 a 12.1,12.1 0 0 1 6.85,-1.36 17,17 0 0 1 7.87,2.38 l 0.4,0.19 c 0,-0.89 -0.11,-1.66 -0.11,-2.42 0,-11.71 0,-26.15 0,-37.86 a 7.27,7.27 0 0 1 8.55,-7.12 7.1,7.1 0 0 1 6.12,7.41 c 0,3.11 0,9 0,12.08 0,1 0,2.07 0,3.21 a 7.44,7.44 0 0 1 11.49,4.07 7.39,7.39 0 0 1 7,-1.12 7,7 0 0 1 4.7,5.39 l 0.5,-0.31 a 7.4,7.4 0 0 1 10.29,2.29 6.46,6.46 0 0 1 0.93,3.37 z"
           id="path4039"
           style="fill:#ecf0f1" /></g><path
         class="cls-12"
         d="M 162.2,95.5 H 140.37 A 8.62,8.62 0 0 1 136.56,79 c 0,-0.28 0,-0.48 0,-0.76 a 10.27,10.27 0 0 1 19.74,-3.84 5,5 0 0 1 3.33,-1.23 5.15,5.15 0 0 1 5.14,5.14 5.06,5.06 0 0 1 -0.82,2.77 7.28,7.28 0 0 1 6,7.11 7.38,7.38 0 0 1 -7.75,7.31 z"
         id="path4042"
         style="fill:#ffffff" /><g
         class="cls-13"
         id="g4046"
         style="opacity:0.6"><path
           class="cls-12"
           d="M 152.86,95.5 H 131 A 8.62,8.62 0 0 1 127.22,79 c 0,-0.28 0,-0.48 0,-0.76 A 10.27,10.27 0 0 1 147,74.4 a 5,5 0 0 1 3.33,-1.23 5.15,5.15 0 0 1 5.14,5.14 5.06,5.06 0 0 1 -0.82,2.77 7.28,7.28 0 0 1 6,7.11 7.38,7.38 0 0 1 -7.79,7.31 z"
           id="path4044"
           style="fill:#ffffff" /></g><g
         class="cls-14"
         id="g4050"
         style="opacity:0.3"><path
           class="cls-12"
           d="M 143.82,95.5 H 122 A 8.62,8.62 0 0 1 118.19,79 c 0,-0.28 0,-0.48 0,-0.76 a 10.27,10.27 0 0 1 19.78,-3.82 5,5 0 0 1 3.33,-1.23 5.15,5.15 0 0 1 5.14,5.14 5.06,5.06 0 0 1 -0.82,2.77 7.28,7.28 0 0 1 6,7.11 7.38,7.38 0 0 1 -7.8,7.29 z"
           id="path4048"
           style="fill:#ffffff" /></g></g></g><g
     id="g4585"
     transform="matrix(0.10709306,-0.01988466,0.01988466,0.10709306,53.123129,136.59929)"><path
       class="st1"
       d="M 259.2,57.2 C 229.5,27.1 181,26.7 150.9,56.4 c -18.4,18.2 -26.4,44.4 -21.3,69.7 -2.8,7.9 -8.5,16.1 -19.9,17.9 -3.9,0.6 14.7,3.2 27.6,3.3 3.3,6.1 7.4,11.7 12.1,16.6 z"
       id="path4565"
       style="fill:#88c87a" /><g
       id="g4573"><g
         class="st2"
         id="g4569"
         style="opacity:0.15"><path
           class="st3"
           d="m 211.7,79.6 -25.3,25.4 -4.8,4.8 c -1.3,1.3 -3.4,1.3 -4.8,0 L 172,105 159.3,92.3 c -1.3,-1.3 -1.3,-3.4 0,-4.8 l 4.8,-4.8 c 1.3,-1.3 3.4,-1.3 4.8,0 L 179.2,93 202.1,70 c 1.3,-1.3 3.4,-1.3 4.8,0 l 4.8,4.8 c 1.3,1.4 1.3,3.5 0,4.8 z"
           id="path4567"
           style="fill:#231f20" /></g><path
         class="st4"
         d="m 206.6,74.5 -25.3,25.3 -4.8,4.8 c -1.3,1.3 -3.4,1.3 -4.8,0 L 167,99.8 154.3,87.1 c -1.3,-1.3 -1.3,-3.4 0,-4.8 l 4.8,-4.8 c 1.3,-1.3 3.4,-1.3 4.8,0 L 174.2,87.8 197,65 c 1.3,-1.3 3.4,-1.3 4.8,0 l 4.8,4.8 c 1.2,1.3 1.2,3.4 0,4.7 z"
         id="path4571"
         style="fill:#ffffff;opacity:1" /></g><path
       class="st5"
       d="m 290.8,184.7 c 0,0 -15.4,-11.6 -15,-25.9 20.3,-30.2 16.5,-70.5 -9,-96.5 l -6.6,6.4 c 0,0 -38.6,36.4 -51.5,48.8 -45.6,43.6 -47.1,47.1 -47.1,47.1 l -1.4,1.4 -3.1,3 c 26.1,27.3 68.3,31.4 99.2,9.7 7.8,6.8 34.5,6 34.5,6 z"
       id="path4575"
       style="fill:#f05f5f" /><g
       id="g4583"><g
         class="st2"
         id="g4579"
         style="opacity:0.15"><path
           class="st3"
           d="m 262.2,161.2 -4.4,4.4 c -1.2,1.2 -3.2,1.2 -4.4,0 l -9.5,-9.5 -9.5,9.5 c -1.2,1.2 -3.2,1.2 -4.4,0 l -4.4,-4.4 c -1.2,-1.2 -1.2,-3.2 0,-4.4 l 9.5,-9.5 -9.5,-9.5 c -1.2,-1.2 -1.2,-3.2 0,-4.4 L 230,129 c 1.2,-1.2 3.2,-1.2 4.4,0 l 9.5,9.5 9.5,-9.5 c 1.2,-1.2 3.2,-1.2 4.4,0 l 4.4,4.4 c 1.2,1.2 1.2,3.2 0,4.4 l -9.5,9.5 9.5,9.5 c 1.2,1.3 1.2,3.2 0,4.4 z"
           id="path4577"
           style="fill:#231f20" /></g><path
         class="st4"
         d="m 257.1,156 -4.4,4.4 c -1.2,1.2 -3.2,1.2 -4.4,0 l -9.5,-9.5 -9.5,9.5 c -1.2,1.2 -3.2,1.2 -4.4,0 l -4.4,-4.4 c -1.2,-1.2 -1.2,-3.2 0,-4.4 l 9.5,-9.5 -9.5,-9.5 c -1.2,-1.2 -1.2,-3.2 0,-4.4 l 4.4,-4.4 c 1.2,-1.2 3.2,-1.2 4.4,0 l 9.5,9.5 9.5,-9.5 c 1.2,-1.2 3.2,-1.2 4.4,0 l 4.4,4.4 c 1.2,1.2 1.2,3.2 0,4.4 l -9.5,9.5 9.5,9.5 c 1.2,1.2 1.2,3.2 0,4.4 z"
         id="path4581"
         style="fill:#ffffff;opacity:1" /></g></g><path
     id="rect184-5-7"
     style="font-variation-settings:normal;opacity:0.25;fill:#000000;fill-opacity:1;stroke:none;stroke-width:0.264583;stroke-linecap:butt;stroke-linejoin:miter;stroke-miterlimit:4;stroke-dasharray:none;stroke-dashoffset:0;stroke-opacity:1;paint-order:stroke fill markers;stop-color:#000000"
     d="m 65.991803,150.26479 3.24477,25.09976 c 0,1.53906 1.21205,2.77813 2.71766,2.77813 h 39.405797 c 0.002,0 0.004,0 0.006,0 h 0.47749 c 1.50561,0 2.71767,-1.23907 2.71767,-2.77813 l 3.24476,-24.04142 -6.96702,-1.0573 v -0.001 h -0.006 z m 46.841527,27.46293 c -0.0109,0.007 -0.0216,0.0132 -0.0326,0.0196 0.011,-0.006 0.0217,-0.0131 0.0326,-0.0196 z m -0.23978,0.12919 c -0.0132,0.006 -0.0265,0.0125 -0.0398,0.0186 0.0133,-0.006 0.0266,-0.0123 0.0398,-0.0186 z m -0.23564,0.10077 c -0.0255,0.01 -0.0512,0.019 -0.077,0.0279 0.0259,-0.009 0.0514,-0.0183 0.077,-0.0279 z m -0.22945,0.076 c -0.0512,0.0146 -0.10251,0.0275 -0.15451,0.0393 0.0519,-0.0116 0.10342,-0.0248 0.15451,-0.0393 z m -0.24288,0.0579 c -0.07,0.0135 -0.14075,0.0244 -0.21187,0.0326 0.0711,-0.008 0.14181,-0.0192 0.21187,-0.0326 z m -0.2558,0.0377 c -0.0852,0.008 -0.17124,0.0125 -0.25734,0.0129 0.0863,-2e-4 0.172,-0.005 0.25734,-0.0129 z" /><g
     id="g4219"><path
       id="rect184-5"
       style="font-variation-settings:normal;opacity:1;fill:#bc5f3c;fill-opacity:1;stroke:none;stroke-width:0.264583;stroke-linecap:butt;stroke-linejoin:miter;stroke-miterlimit:4;stroke-dasharray:none;stroke-dashoffset:0;stroke-opacity:1;paint-order:stroke fill markers;stop-color:#000000;stop-opacity:1"
       d="m 110.55141,149.86889 3.24477,25.09976 c 0.19684,1.52257 -1.21207,2.77812 -2.71767,2.77812 h 0.48369 c 1.50561,0 2.71767,-1.23906 2.71767,-2.77812 l 3.24476,-24.04143 z"
       sodipodi:nodetypes="cccsccc" /><path
       id="rect184-3"
       style="font-variation-settings:normal;opacity:1;fill:#f67e4f;fill-opacity:1;stroke:none;stroke-width:0.264583;stroke-linecap:butt;stroke-linejoin:miter;stroke-miterlimit:4;stroke-dasharray:none;stroke-dashoffset:0;stroke-opacity:1;paint-order:stroke fill markers;stop-color:#000000;stop-opacity:1"
       d="m 110.55714,149.86893 3.24484,25.09976 c 0.19684,1.52257 -1.21209,2.77808 -2.71769,2.77808 H 71.67245 c -1.50561,0 -2.7177,-1.23902 -2.7177,-2.77808 l -3.24484,-25.09976 z"
       sodipodi:nodetypes="csssscc" /><g
       id="g3677"
       transform="translate(33.782327,-56.618698)"><circle
         style="font-variation-settings:normal;fill:#bc5f3c;fill-opacity:1;stroke:none;stroke-width:0.315013;stroke-linecap:butt;stroke-linejoin:miter;stroke-miterlimit:4;stroke-dasharray:none;stroke-dashoffset:0;stroke-opacity:1;paint-order:stroke fill markers;stop-color:#000000"
         id="path3353-1-2"
         cx="55.971649"
         cy="220.22284"
         r="3" /><path
         id="rect3434-61"
         style="font-variation-settings:normal;fill:#bc5f3c;fill-opacity:1;stroke:none;stroke-width:0.224598;stroke-linecap:butt;stroke-linejoin:miter;stroke-miterlimit:4;stroke-dasharray:none;stroke-dashoffset:0;stroke-opacity:1;paint-order:stroke fill markers;stop-color:#000000"
         d="m 33.524569,218.72308 0.387573,2.99982 H 48.80684 c 0.830999,0 1.500167,-0.66917 1.500167,-1.50017 0,-0.831 -0.669168,-1.49965 -1.500167,-1.49965 z m -11.734685,5.2e-4 c -0.0461,5.1e-4 -0.09196,0.002 -0.136942,0.007 0.04495,-0.005 0.09089,-0.006 0.136942,-0.007 z m -0.136942,0.007 c -0.05055,0.005 -0.100434,0.0128 -0.149345,0.0227 0.04891,-0.01 0.0988,-0.0176 0.149345,-0.0227 z m -0.149345,0.0227 c -0.04237,0.009 -0.08357,0.0199 -0.12454,0.032 0.04102,-0.0121 0.08212,-0.0234 0.12454,-0.032 z m -0.159163,0.0424 c -0.0416,0.0134 -0.08257,0.0281 -0.122474,0.045 0.03985,-0.0168 0.08093,-0.0316 0.122474,-0.045 z m -0.122474,0.045 c -0.03989,0.0168 -0.07877,0.0357 -0.116788,0.0558 0.0381,-0.0201 0.07682,-0.039 0.116788,-0.0558 z m -0.14521,0.0708 c -0.0376,0.0209 -0.07405,0.0432 -0.109554,0.0672 0.03542,-0.0239 0.07205,-0.0463 0.109554,-0.0672 z m -0.109554,0.0672 c -0.0354,0.0239 -0.06969,0.0497 -0.102836,0.0765 0.03322,-0.0268 0.06735,-0.0525 0.102836,-0.0765 z m -0.127124,0.0961 c -0.03286,0.0277 -0.06474,0.0565 -0.09509,0.0868 0.03028,-0.0303 0.0623,-0.0592 0.09509,-0.0868 z m -0.09509,0.0868 c -0.03069,0.0307 -0.05991,0.0629 -0.08785,0.0961 0.02801,-0.0334 0.05707,-0.0653 0.08785,-0.0961 z m -0.10387,0.11524 c -0.0248,0.0305 -0.04791,0.0621 -0.07028,0.0946 0.02227,-0.0323 0.0456,-0.0642 0.07028,-0.0946 z m -0.08733,0.1204 c -0.02347,0.0356 -0.04624,0.0719 -0.06666,0.10956 0.02046,-0.0377 0.04315,-0.0739 0.06666,-0.10956 z m -0.06666,0.10956 c -0.0197,0.0363 -0.03704,0.074 -0.05374,0.11214 0.01669,-0.0381 0.03406,-0.0758 0.05374,-0.11214 z m -0.06925,0.14831 c -0.01609,0.0395 -0.03118,0.0798 -0.04392,0.12092 0.01277,-0.0412 0.0278,-0.0813 0.04392,-0.12092 z m -0.04392,0.12092 c -0.01457,0.047 -0.02673,0.0953 -0.03669,0.14418 0.01,-0.0489 0.02212,-0.0971 0.03669,-0.14418 z m -0.03669,0.14418 c -0.0098,0.0481 -0.01712,0.0971 -0.02222,0.14676 0.0051,-0.0498 0.0124,-0.0985 0.02222,-0.14676 z m -0.02274,0.15038 c -0.005,0.0502 -0.0078,0.10086 -0.0078,0.15244 0,-0.0514 0.0027,-0.10239 0.0078,-0.15244 z m -0.0078,0.15244 c 0,0.0519 0.0026,0.10345 0.0078,0.154 -0.0051,-0.0506 -0.0078,-0.10206 -0.0078,-0.154 z m 0.0078,0.154 c 0.0051,0.0504 0.01283,0.10007 0.02274,0.14883 -0.01,-0.0489 -0.01763,-0.0983 -0.02274,-0.14883 z m 0.02274,0.14934 c 0.01,0.0489 0.02212,0.0966 0.03669,0.14366 -0.01452,-0.0469 -0.02675,-0.0949 -0.03669,-0.14366 z m 0.03669,0.14366 c 0.01274,0.0412 0.02783,0.0814 0.04392,0.12093 -0.01613,-0.0396 -0.03116,-0.0797 -0.04392,-0.12093 z m 0.0584,0.15503 c 0.01697,0.0389 0.03469,0.0771 0.05478,0.11421 -0.02004,-0.037 -0.03783,-0.0754 -0.05478,-0.11421 z m 0.05478,0.11421 c 0.02077,0.0383 0.04377,0.0754 0.0677,0.11162 -0.02399,-0.0363 -0.04687,-0.0732 -0.0677,-0.11162 z m 0.08372,0.13539 c 0.02454,0.0356 0.05006,0.0706 0.07751,0.10387 -0.0274,-0.0332 -0.05302,-0.0683 -0.07751,-0.10387 z m 0.07751,0.10387 c 0.03052,0.037 0.06274,0.0726 0.09663,0.10645 -0.0339,-0.0339 -0.06611,-0.0694 -0.09663,-0.10645 z m 0.09663,0.10645 c 0.03389,0.0339 0.06944,0.0661 0.106453,0.0966 -0.03702,-0.0305 -0.07256,-0.0627 -0.106453,-0.0966 z m 0.106453,0.0966 c 0.03329,0.0275 0.06825,0.053 0.10387,0.0775 -0.03556,-0.0245 -0.07064,-0.0501 -0.10387,-0.0775 z m 0.127641,0.0935 c 0.03621,0.0239 0.07329,0.0469 0.111621,0.0677 -0.03842,-0.0208 -0.07533,-0.0437 -0.111621,-0.0677 z m 0.111621,0.0677 c 0.03707,0.0201 0.07532,0.0378 0.114205,0.0548 -0.0388,-0.017 -0.07722,-0.0347 -0.114205,-0.0548 z m 0.148312,0.0692 c 0.03953,0.0161 0.07977,0.0312 0.120923,0.0439 -0.04122,-0.0128 -0.08133,-0.0278 -0.120923,-0.0439 z m 0.120923,0.0439 c 0.04703,0.0146 0.09475,0.0267 0.14366,0.0367 -0.04891,-0.01 -0.09663,-0.0221 -0.14366,-0.0367 z m 0.14366,0.0367 c 0.04891,0.01 0.0988,0.0176 0.149345,0.0227 -0.05055,-0.005 -0.100432,-0.0128 -0.149345,-0.0227 z m 0.149345,0.0227 c 0.05055,0.005 0.102058,0.008 0.153996,0.008 -0.05194,0 -0.103447,-0.003 -0.153996,-0.008 z" /><path
         id="rect3434-2-8"
         style="font-variation-settings:normal;fill:#bc5f3c;fill-opacity:1;stroke:none;stroke-width:0.224598;stroke-linecap:butt;stroke-linejoin:miter;stroke-miterlimit:4;stroke-dasharray:none;stroke-dashoffset:0;stroke-opacity:1;paint-order:stroke fill markers;stop-color:#000000"
         d="m 63.136198,218.72308 c -0.830999,0 -1.49965,0.66865 -1.49965,1.49965 0,0.831 0.668651,1.50017 1.49965,1.50017 h 15.623336 l -0.387574,-2.99982 z m 27.017472,5.2e-4 c 0.04604,5.2e-4 0.0915,0.002 0.136426,0.007 -0.04495,-0.005 -0.09037,-0.006 -0.136426,-0.007 z m 0.136426,0.007 c 0.05055,0.005 0.100432,0.0128 0.149345,0.0227 -0.04891,-0.01 -0.0988,-0.0176 -0.149345,-0.0227 z m 0.149345,0.0227 c 0.04261,0.009 0.08438,0.0198 0.125574,0.032 -0.04113,-0.0122 -0.08304,-0.0234 -0.125574,-0.032 z m 0.15968,0.0424 c 0.04154,0.0134 0.08262,0.0282 0.122473,0.045 -0.03991,-0.0168 -0.08087,-0.0316 -0.122473,-0.045 z m 0.122473,0.045 c 0.03748,0.0158 0.07372,0.0335 0.109554,0.0522 -0.03588,-0.0187 -0.07202,-0.0364 -0.109554,-0.0522 z m 0.152962,0.076 c 0.03465,0.0196 0.06895,0.0399 0.101803,0.062 -0.03284,-0.0222 -0.06717,-0.0425 -0.101803,-0.062 z m 0.101803,0.062 c 0.0359,0.0242 0.07028,0.0498 0.10387,0.077 -0.0335,-0.0271 -0.06807,-0.0529 -0.10387,-0.077 z m 0.126607,0.0961 c 0.03279,0.0276 0.0648,0.0565 0.09509,0.0868 -0.03035,-0.0303 -0.06223,-0.0592 -0.09509,-0.0868 z m 0.09509,0.0868 c 0.03078,0.0308 0.05984,0.0627 0.08785,0.0961 -0.02794,-0.0333 -0.05716,-0.0654 -0.08785,-0.0961 z m 0.10387,0.11524 c 0.02777,0.0342 0.05435,0.0698 0.07906,0.10645 -0.02477,-0.0367 -0.05122,-0.0722 -0.07906,-0.10645 z m 0.07906,0.10645 c 0.02691,0.0399 0.05189,0.081 0.07493,0.12351 -0.02304,-0.0425 -0.04803,-0.0836 -0.07493,-0.12351 z m 0.07493,0.12351 c 0.02304,0.0425 0.04412,0.0864 0.06305,0.13126 -0.01893,-0.0449 -0.04001,-0.0887 -0.06305,-0.13126 z m 0.06305,0.13126 c 0.0168,0.0399 0.03158,0.0809 0.04496,0.12247 -0.01339,-0.0416 -0.02814,-0.0826 -0.04496,-0.12247 z m 0.05529,0.15658 c 0.01219,0.0412 0.02336,0.083 0.03204,0.12557 -0.0087,-0.0425 -0.01988,-0.0844 -0.03204,-0.12557 z m 0.03204,0.12557 c 0.0086,0.0425 0.01464,0.0855 0.01964,0.12919 -0.005,-0.0436 -0.01101,-0.0868 -0.01964,-0.12919 z m 0.02377,0.16691 c 0.0035,0.0392 0.0052,0.0789 0.0057,0.11886 -4.44e-4,-0.0401 -0.0022,-0.0796 -0.0057,-0.11886 z m 0.0057,0.15297 c -4.49e-4,0.0403 -0.0021,0.0804 -0.0057,0.11989 0.0035,-0.0395 0.0052,-0.0796 0.0057,-0.11989 z m -0.0093,0.15503 c -0.005,0.0442 -0.0114,0.0878 -0.02015,0.13074 0.0087,-0.0429 0.01516,-0.0866 0.02015,-0.13074 z m -0.02015,0.13125 c -0.0087,0.0424 -0.0199,0.084 -0.03204,0.12506 0.01216,-0.0411 0.02338,-0.0825 0.03204,-0.12506 z m -0.04238,0.15917 c -0.01338,0.0415 -0.02815,0.0826 -0.04496,0.12247 0.01682,-0.0399 0.03157,-0.0809 0.04496,-0.12247 z m -0.04496,0.12247 c -0.01893,0.0449 -0.04,0.0887 -0.06305,0.13126 0.02304,-0.0425 0.04412,-0.0864 0.06305,-0.13126 z m -0.06305,0.13126 c -0.02304,0.0425 -0.04802,0.0836 -0.07493,0.12351 0.0269,-0.0399 0.05189,-0.081 0.07493,-0.12351 z m -0.07493,0.12351 c -0.02691,0.0399 -0.05577,0.0787 -0.0863,0.11575 0.03052,-0.037 0.0594,-0.0759 0.0863,-0.11575 z m -0.0863,0.11575 c -0.03053,0.037 -0.06274,0.0726 -0.09663,0.10645 0.03389,-0.0339 0.06611,-0.0694 0.09663,-0.10645 z m -0.09663,0.10645 c -0.0339,0.0339 -0.06944,0.0661 -0.106454,0.0966 0.03701,-0.0305 0.07256,-0.0627 0.106454,-0.0966 z m -0.106454,0.0966 c -0.03351,0.0276 -0.06851,0.0534 -0.104386,0.078 0.03596,-0.0247 0.0708,-0.0503 0.104386,-0.078 z m -0.129191,0.0946 c -0.03278,0.0216 -0.06625,0.042 -0.100769,0.061 0.03434,-0.0189 0.06815,-0.0395 0.100769,-0.061 z m -0.120406,0.0718 c -0.03296,0.0175 -0.06691,0.0335 -0.101285,0.0486 0.03455,-0.0151 0.06817,-0.031 0.101285,-0.0486 z m -0.137459,0.0641 c -0.03959,0.0161 -0.07971,0.0312 -0.120923,0.0439 0.04115,-0.0127 0.0814,-0.0278 0.120923,-0.0439 z m -0.120923,0.0439 c -0.04703,0.0146 -0.09526,0.0267 -0.144177,0.0367 0.04891,-0.01 0.09715,-0.0221 0.144177,-0.0367 z m -0.144177,0.0367 c -0.04891,0.01 -0.0988,0.0176 -0.149345,0.0227 0.05055,-0.005 0.100434,-0.0128 0.149345,-0.0227 z m -0.149345,0.0227 c -0.05055,0.005 -0.101542,0.008 -0.153479,0.008 0.05194,0 0.102931,-0.003 0.153479,-0.008 z" /></g></g></g></g>
</g>
<metadata
   id="metadata1454"><rdf:RDF><cc:Work
       rdf:about=""><dc:title>Interactive Book</dc:title></cc:Work></rdf:RDF></metadata></svg>
